<svg xmlns="http://www.w3.org/2000/svg" width="1700" height="396" viewBox="0 0 1700 396">
<defs>
  <marker id="arrowThinOpen" markerUnits="userSpaceOnUse" markerWidth="12" markerHeight="10" refX="12" refY="5" orient="auto">
    <path d="M1,1 L11,5 L1,9" fill="none" stroke="#111" stroke-width="2" stroke-linecap="round" stroke-linejoin="round"/>
  </marker>
  <style> .body{font-family:Segoe UI, Arial, sans-serif} .mono{font-family:Consolas, Cascadia Mono, monospace} </style>
</defs>
<text x="24" y="32" font-size="20" font-weight="bold" fill="#111" text-anchor="start" font-family="Segoe UI, Arial, sans-serif">git clone &lt;URL&gt; [dir]</text>
<text x="24" y="56" font-size="14" font-weight="normal" fill="#333" text-anchor="start" font-family="Consolas, Cascadia Mono, monospace">c:\a\git\libs&gt;git clone git@github.com:FD2024/datarecorder-lib.git</text>
<text x="24" y="73" font-size="14" font-weight="normal" fill="#333" text-anchor="start" font-family="Segoe UI, Arial, sans-serif">Erstellt lokales Repo unter c:\a\git\libs\datarecorder-lib, richtet origin ein, holt Objekte/Refs, checkt Default-Branch main aus.</text>
<rect x="24" y="100" width="760" height="266" rx="16" ry="16" fill="#fff" stroke="#5B4B8A" stroke-width="2"/>
<text x="34" y="126" font-size="16" font-weight="bold" fill="#111" text-anchor="start" font-family="Segoe UI, Arial, sans-serif">Remote Repository github.com</text>
<rect x="34" y="138" width="207" height="218" rx="10" ry="10" fill="#fff" stroke="#111" stroke-width="2"/>
<text x="44" y="156" font-size="13" font-weight="bold" fill="#111" text-anchor="start" font-family="Segoe UI, Arial, sans-serif">datarecorder-lib Working Tree</text>
<text x="44" y="196" font-size="12" font-weight="normal" fill="#111" text-anchor="start" font-family="Segoe UI, Arial, sans-serif">datarecorder-lib/</text>
<text x="58" y="216" font-size="12" font-weight="normal" fill="#111" text-anchor="start" font-family="Segoe UI, Arial, sans-serif">src/</text>
<text x="72" y="236" font-size="12" font-weight="normal" fill="#111" text-anchor="start" font-family="Segoe UI, Arial, sans-serif">main.c</text>
<rect x="205" y="228" width="16" height="10" fill="#fff" stroke="#111" stroke-width="1"/>
<rect x="207" y="230" width="16" height="10" fill="#fff" stroke="#111" stroke-width="1"/>
<rect x="209" y="232" width="16" height="10" fill="#fff" stroke="#111" stroke-width="1"/>
<text x="58" y="256" font-size="12" font-weight="normal" fill="#111" text-anchor="start" font-family="Segoe UI, Arial, sans-serif">README.md</text>
<rect x="205" y="248" width="16" height="10" fill="#fff" stroke="#111" stroke-width="1"/>
<rect x="207" y="250" width="16" height="10" fill="#fff" stroke="#111" stroke-width="1"/>
<rect x="209" y="252" width="16" height="10" fill="#fff" stroke="#111" stroke-width="1"/>
<rect x="255" y="138" width="182" height="218" rx="10" ry="10" fill="#fff" stroke="#111" stroke-width="2"/>
<text x="265" y="156" font-size="13" font-weight="bold" fill="#111" text-anchor="start" font-family="Segoe UI, Arial, sans-serif">.git (Index &amp; Staging Area)</text>
<text x="265" y="196" font-size="12" font-weight="normal" fill="#111" text-anchor="start" font-family="Segoe UI, Arial, sans-serif">datarecorder-lib/</text>
<text x="279" y="216" font-size="12" font-weight="normal" fill="#111" text-anchor="start" font-family="Segoe UI, Arial, sans-serif">src/</text>
<text x="293" y="236" font-size="12" font-weight="normal" fill="#111" text-anchor="start" font-family="Segoe UI, Arial, sans-serif">main.c</text>
<rect x="401" y="228" width="16" height="10" fill="#fff" stroke="#111" stroke-width="1"/>
<rect x="403" y="230" width="16" height="10" fill="#fff" stroke="#111" stroke-width="1"/>
<rect x="405" y="232" width="16" height="10" fill="#fff" stroke="#111" stroke-width="1"/>
<text x="279" y="256" font-size="12" font-weight="normal" fill="#111" text-anchor="start" font-family="Segoe UI, Arial, sans-serif">README.md</text>
<rect x="401" y="248" width="16" height="10" fill="#fff" stroke="#111" stroke-width="1"/>
<rect x="403" y="250" width="16" height="10" fill="#fff" stroke="#111" stroke-width="1"/>
<rect x="405" y="252" width="16" height="10" fill="#fff" stroke="#111" stroke-width="1"/>
<rect x="451" y="138" width="323" height="218" rx="10" ry="10" fill="#fff" stroke="#111" stroke-width="2"/>
<rect x="451" y="138" width="323" height="22" fill="#F0F0FF" opacity="0.7"/>
<rect x="451" y="160" width="323" height="22" fill="#F0F0FF" opacity="0.5"/>
<text x="461" y="154" font-size="13" font-weight="bold" fill="#111" text-anchor="start" font-family="Segoe UI, Arial, sans-serif">Branch</text>
<text x="641" y="154" font-size="13" font-weight="bold" fill="#111" text-anchor="start" font-family="Segoe UI, Arial, sans-serif">Refs</text>
<text x="641" y="176" font-size="12" font-weight="bold" fill="#111" text-anchor="start" font-family="Segoe UI, Arial, sans-serif">Hash</text>
<text x="707" y="176" font-size="12" font-weight="bold" fill="#111" text-anchor="start" font-family="Segoe UI, Arial, sans-serif">Type</text>
<rect x="461" y="164" width="56" height="14" rx="6" ry="6" fill="#E3F2FD"/>
<text x="489.0" y="173.8" font-size="13" font-weight="bold" fill="#111" text-anchor="middle" font-family="Segoe UI, Arial, sans-serif">main</text>
<circle cx="536.0" cy="298" r="8" fill="#fff" stroke="#111" stroke-width="3"/>
<text x="641" y="302" font-size="12" font-weight="normal" fill="#111" text-anchor="start" font-family="Consolas, Cascadia Mono, monospace">3087743</text>
<text x="707" y="302" font-size="12" font-weight="normal" fill="#111" text-anchor="start" font-family="Segoe UI, Arial, sans-serif">commit</text>
<line x1="536.0" y1="298" x2="536.0" y2="250" stroke="#111" stroke-width="3"/>
<circle cx="536.0" cy="250" r="8" fill="#fff" stroke="#111" stroke-width="3"/>
<text x="641" y="254" font-size="12" font-weight="normal" fill="#111" text-anchor="start" font-family="Consolas, Cascadia Mono, monospace">2d10267</text>
<text x="707" y="254" font-size="12" font-weight="normal" fill="#111" text-anchor="start" font-family="Segoe UI, Arial, sans-serif">commit</text>
<line x1="536.0" y1="250" x2="536.0" y2="202" stroke="#111" stroke-width="3"/>
<circle cx="536.0" cy="202" r="8" fill="#fff" stroke="#111" stroke-width="3"/>
<text x="641" y="206" font-size="12" font-weight="normal" fill="#111" text-anchor="start" font-family="Consolas, Cascadia Mono, monospace">06d7e80</text>
<text x="707" y="206" font-size="12" font-weight="normal" fill="#111" text-anchor="start" font-family="Segoe UI, Arial, sans-serif">commit</text>
<line x1="798" y1="140.0" x2="902" y2="140.0" stroke="#111" stroke-width="2" marker-end="url(#arrowThinOpen)"/>
<text x="850.0" y="132.0" font-size="13" font-weight="normal" fill="#111" text-anchor="middle" font-family="Segoe UI, Arial, sans-serif">clone</text>
<rect x="916" y="100" width="760" height="266" rx="16" ry="16" fill="#fff" stroke="#5B4B8A" stroke-width="2"/>
<text x="926" y="126" font-size="16" font-weight="bold" fill="#111" text-anchor="start" font-family="Segoe UI, Arial, sans-serif">Lokal: c:\a\git\libs\datarecorder-lib</text>
<rect x="926" y="138" width="207" height="218" rx="10" ry="10" fill="#F8FFFB" stroke="#1B9E77" stroke-width="2"/>
<text x="936" y="156" font-size="13" font-weight="bold" fill="#1B9E77" text-anchor="start" font-family="Segoe UI, Arial, sans-serif">datarecorder-lib Working Tree</text>
<text x="936" y="196" font-size="12" font-weight="normal" fill="#1B9E77" text-anchor="start" font-family="Segoe UI, Arial, sans-serif">datarecorder-lib/</text>
<text x="950" y="216" font-size="12" font-weight="normal" fill="#1B9E77" text-anchor="start" font-family="Segoe UI, Arial, sans-serif">src/</text>
<text x="964" y="236" font-size="12" font-weight="normal" fill="#1B9E77" text-anchor="start" font-family="Segoe UI, Arial, sans-serif">main.c</text>
<rect x="1097" y="228" width="16" height="10" fill="#fff" stroke="#1B9E77" stroke-width="1"/>
<rect x="1099" y="230" width="16" height="10" fill="#fff" stroke="#1B9E77" stroke-width="1"/>
<rect x="1101" y="232" width="16" height="10" fill="#fff" stroke="#1B9E77" stroke-width="1"/>
<text x="950" y="256" font-size="12" font-weight="normal" fill="#1B9E77" text-anchor="start" font-family="Segoe UI, Arial, sans-serif">README.md</text>
<rect x="1097" y="248" width="16" height="10" fill="#fff" stroke="#1B9E77" stroke-width="1"/>
<rect x="1099" y="250" width="16" height="10" fill="#fff" stroke="#1B9E77" stroke-width="1"/>
<rect x="1101" y="252" width="16" height="10" fill="#fff" stroke="#1B9E77" stroke-width="1"/>
<rect x="1147" y="138" width="182" height="218" rx="10" ry="10" fill="#F8FFFB" stroke="#1B9E77" stroke-width="2"/>
<text x="1157" y="156" font-size="13" font-weight="bold" fill="#1B9E77" text-anchor="start" font-family="Segoe UI, Arial, sans-serif">.git (Index &amp; Staging Area)</text>
<text x="1157" y="196" font-size="12" font-weight="normal" fill="#1B9E77" text-anchor="start" font-family="Segoe UI, Arial, sans-serif">datarecorder-lib/</text>
<text x="1171" y="216" font-size="12" font-weight="normal" fill="#1B9E77" text-anchor="start" font-family="Segoe UI, Arial, sans-serif">src/</text>
<text x="1185" y="236" font-size="12" font-weight="normal" fill="#1B9E77" text-anchor="start" font-family="Segoe UI, Arial, sans-serif">main.c</text>
<rect x="1293" y="228" width="16" height="10" fill="#fff" stroke="#1B9E77" stroke-width="1"/>
<rect x="1295" y="230" width="16" height="10" fill="#fff" stroke="#1B9E77" stroke-width="1"/>
<rect x="1297" y="232" width="16" height="10" fill="#fff" stroke="#1B9E77" stroke-width="1"/>
<text x="1171" y="256" font-size="12" font-weight="normal" fill="#1B9E77" text-anchor="start" font-family="Segoe UI, Arial, sans-serif">README.md</text>
<rect x="1293" y="248" width="16" height="10" fill="#fff" stroke="#1B9E77" stroke-width="1"/>
<rect x="1295" y="250" width="16" height="10" fill="#fff" stroke="#1B9E77" stroke-width="1"/>
<rect x="1297" y="252" width="16" height="10" fill="#fff" stroke="#1B9E77" stroke-width="1"/>
<rect x="1343" y="138" width="323" height="218" rx="10" ry="10" fill="#F8FFFB" stroke="#1B9E77" stroke-width="2"/>
<rect x="1343" y="138" width="323" height="22" fill="#F0F0FF" opacity="0.7"/>
<rect x="1343" y="160" width="323" height="22" fill="#F0F0FF" opacity="0.5"/>
<text x="1353" y="154" font-size="13" font-weight="bold" fill="#111" text-anchor="start" font-family="Segoe UI, Arial, sans-serif">Branch</text>
<text x="1533" y="154" font-size="13" font-weight="bold" fill="#111" text-anchor="start" font-family="Segoe UI, Arial, sans-serif">Refs</text>
<text x="1533" y="176" font-size="12" font-weight="bold" fill="#111" text-anchor="start" font-family="Segoe UI, Arial, sans-serif">Hash</text>
<text x="1599" y="176" font-size="12" font-weight="bold" fill="#111" text-anchor="start" font-family="Segoe UI, Arial, sans-serif">Type</text>
<rect x="1353" y="164" width="56" height="14" rx="6" ry="6" fill="#E3F2FD"/>
<text x="1381.0" y="173.8" font-size="13" font-weight="bold" fill="#111" text-anchor="middle" font-family="Segoe UI, Arial, sans-serif">main</text>
<circle cx="1428.0" cy="298" r="8" fill="#fff" stroke="#1B9E77" stroke-width="3"/>
<text x="1533" y="302" font-size="12" font-weight="normal" fill="#1B9E77" text-anchor="start" font-family="Consolas, Cascadia Mono, monospace">3087743</text>
<text x="1599" y="302" font-size="12" font-weight="normal" fill="#1B9E77" text-anchor="start" font-family="Segoe UI, Arial, sans-serif">commit</text>
<line x1="1428.0" y1="298" x2="1428.0" y2="250" stroke="#1B9E77" stroke-width="3"/>
<circle cx="1428.0" cy="250" r="8" fill="#fff" stroke="#1B9E77" stroke-width="3"/>
<text x="1533" y="254" font-size="12" font-weight="normal" fill="#1B9E77" text-anchor="start" font-family="Consolas, Cascadia Mono, monospace">2d10267</text>
<text x="1599" y="254" font-size="12" font-weight="normal" fill="#1B9E77" text-anchor="start" font-family="Segoe UI, Arial, sans-serif">commit</text>
<line x1="1428.0" y1="250" x2="1428.0" y2="202" stroke="#1B9E77" stroke-width="3"/>
<circle cx="1428.0" cy="202" r="8" fill="#fff" stroke="#1B9E77" stroke-width="3"/>
<text x="1533" y="206" font-size="12" font-weight="normal" fill="#1B9E77" text-anchor="start" font-family="Consolas, Cascadia Mono, monospace">06d7e80</text>
<text x="1599" y="206" font-size="12" font-weight="normal" fill="#1B9E77" text-anchor="start" font-family="Segoe UI, Arial, sans-serif">commit</text>
</svg>